<svg xmlns="http://www.w3.org/2000/svg" width="16" height="16" viewBox="0 0 16 16"><path fill="#2e3436" d="M4 0C2.355 0 1 1.355 1 3v10c0 1.645 1.355 3 3 3h3a1 1 0 1 0 0-2H4c-.57 0-1-.43-1-1V3c0-.57.43-1 1-1h5.586L13 5.414V12a1 1 0 1 0 2 0V5a1 1 0 0 0-.293-.707l-4-4A1 1 0 0 0 10 0zm4.64 6.168c-.198.004-.401.02-.597.047l1.172 2.074c.242.426-.028.914-.54 1.211l-.925.53c-.516.29-1.09.25-1.332-.175L5.246 7.781c-.25.309-.476.649-.617 1.02-.68 1.761.285 3.468 2.152 3.804.387.075.801.055 1.192.008.03-.008 1.86 3.386 1.86 3.386L14 16.003l-3.2-4.957c.247-.309.446-.653.587-1.02.68-1.765-.285-3.472-2.149-3.808a3.1 3.1 0 0 0-.597-.05z"/></svg>
